<svg xmlns="http://www.w3.org/2000/svg" viewBox="0 0 2400 420" preserveAspectRatio="xMidYMax slice" xmlns:c2pa="http://c2pa.org/manifest"><metadata><c2pa:manifest>AAAWgmp1bWIAAAAeanVtZGMycGEAEQAQgAAAqgA4m3EDYzJwYQAAABZcanVtYgAAAEdqdW1kYzJtYQARABCAAACqADibcQN1cm46YzJwYToxMzAyOTkxOC0xMGRmLTQ0ZmMtYTE3Yy00NWVkOWY2NjY2MzkAAAADl2p1bWIAAAApanVtZGMyYXMAEQAQgAAAqgA4m3EDYzJwYS5hc3NlcnRpb25zAAAAALxqdW1iAAAARGp1bWRjYm9yABEAEIAAAKoAOJtxE2MycGEuaW5ncmVkaWVudC52MwAAAAAYYzJzaBU0PuYWyw5QpPxGBBIH2OMAAABwY2JvcqNpZGM6Zm9ybWF0bWltYWdlL3N2Zyt4bWxqaW5zdGFuY2VJRHgseG1wOmlpZDpiOTRiNmRlNi1iMzczLTQ0NjQtYTM5ZS02M2JlZjNhYWQ4NGZscmVsYXRpb25zaGlwaHBhcmVudE9mAAAB4mp1bWIAAABBanVtZGNib3IAEQAQgAAAqgA4m3ETYzJwYS5hY3Rpb25zLnYyAAAAABhjMnNotSMaTzAqMMrAGWaX34eeKwAAAZljYm9yomdhY3Rpb25zgqJmYWN0aW9ua2MycGEub3BlbmVkanBhcmFtZXRlcnOha2luZ3JlZGllbnRzgaJjdXJseC1zZWxmI2p1bWJmPWMycGEuYXNzZXJ0aW9ucy9jMnBhLmluZ3JlZGllbnQudjNkaGFzaFggDj5mGilYsof6x7uQ8armPDCPm78czC3zBZffGIeBB+ikZmFjdGlvbngdY29tLmFudGhyb3BpYy5jbGF1ZGUucHJvdmlkZWRqcGFyYW1ldGVyc6F4H2NvbS5hbnRocm9waWMub3JpZ2luLWNvbmZpZGVuY2VndW5rbm93bmtkZXNjcmlwdGlvbnhmQ2xhdWRlIHByb3ZpZGVkIHRoaXMgZmlsZSBhdCB0aGUgcmVxdWVzdCBvZiBhIHVzZXIgYW5kIG1heSBoYXZlIGNyZWF0ZWQgb3IgbW9kaWZpZWQgdGhlIGZpbGUgY29udGVudHMubXNvZnR3YXJlQWdlbnShZG5hbWVmQ2xhdWRlcmFsbEFjdGlvbnNJbmNsdWRlZPUAAADIanVtYgAAAEBqdW1kY2JvcgARABCAAACqADibcRNjMnBhLmhhc2guZGF0YQAAAAAYYzJzaIgPsSv6KO0VV07a+xehoLYAAACAY2JvcqVjYWxnZnNoYTI1NmNwYWRNAAAAAAAAAAAAAAAAAGRoYXNoWCDtYmgJVur5eJC4p7y/ojySQBRzRtrqi9krQ0twB78iYGRuYW1lbmp1bWJmIG1hbmlmZXN0amV4Y2x1c2lvbnOBomVzdGFydBijZmxlbmd0aBkeBAAAAj5qdW1iAAAAJ2p1bWRjMmNsABEAEIAAAKoAOJtxA2MycGEuY2xhaW0udjIAAAACD2Nib3KlY2FsZ2ZzaGEyNTZpc2lnbmF0dXJleE1zZWxmI2p1bWJmPS9jMnBhL3VybjpjMnBhOjEzMDI5OTE4LTEwZGYtNDRmYy1hMTdjLTQ1ZWQ5ZjY2NjYzOS9jMnBhLnNpZ25hdHVyZWppbnN0YW5jZUlEeCx4bXA6aWlkOjk2Y2MzYWJjLTlhMDItNGU2MC1hMmJlLWE2NzdjYWZmMGY3ZXJjcmVhdGVkX2Fzc2VydGlvbnODomN1cmx4LXNlbGYjanVtYmY9YzJwYS5hc3NlcnRpb25zL2MycGEuaW5ncmVkaWVudC52M2RoYXNoWCAOPmYaKViyh/rHu5DxquY8MI+bvxzMLfMFl98Yh4EH6KJjdXJseCpzZWxmI2p1bWJmPWMycGEuYXNzZXJ0aW9ucy9jMnBhLmFjdGlvbnMudjJkaGFzaFgg+6+05CgKSB5eFbInMpZItbElY4ASBdS/TfRMmyLAO3aiY3VybHgpc2VsZiNqdW1iZj1jMnBhLmFzc2VydGlvbnMvYzJwYS5oYXNoLmRhdGFkaGFzaFggWeFk6WDv37DzGb4apB/3kEAZ2lUcZEH3/VdBIqZpDYB0Y2xhaW1fZ2VuZXJhdG9yX2luZm+jZG5hbWVvQW50aHJvcGljIEZpbGVzZ3ZlcnNpb25lMS4wLjBrc3BlY1ZlcnNpb25lMi40LjAAABA4anVtYgAAAChqdW1kYzJjcwARABCAAACqADibcQNjMnBhLnNpZ25hdHVyZQAAABAIY2JvctKEWQISogEmGCFZAgowggIGMIIBjaADAgECAhRA5aAK7sI50L64g/oGQgU9Z1UTADAKBggqhkjOPQQDAzBJMRcwFQYDVQQKEw5BbnRocm9waWMsIFBCQzEuMCwGA1UEAxMlQW50aHJvcGljIENvbnRlbnQgQ3JlZGVudGlhbHMgUm9vdCBDQTAeFw0yNjA4MDcxODQzNTZaFw0yODA4MDYxOTQzNTZaMEQxFzAVBgNVBAoTDkFudGhyb3BpYywgUEJDMSkwJwYDVQQDEyBBbnRocm9waWMgQ2xhdWRlIENvbnRlbnQgU2lnbmluZzBZMBMGByqGSM49AgEGCCqGSM49AwEHA0IABJh6CmvLUBgFFNU0vUKlOVtE6djd17L5SuwX0LemFisBM3dkd/3cyjxFA3Qo5S46fX0/ihY0VZ7mfb9KF703t5OjWDBWMA4GA1UdDwEB/wQEAwIHgDAVBgNVHSUEDjAMBgorBgEEAYPoXgIBMAwGA1UdEwEB/wQCMAAwHwYDVR0jBBgwFoAUzlHiBIFOZFsj+OPEz5o+nMHXXMIwCgYIKoZIzj0EAwMDZwAwZAIwMXMdFJ4BetLLVY7ORuE9noqbbAZOZn/aArXyTwFAZfKrPzxF2vPoJNf1+UCdg1XGAjBwX1zd9WGqYkqmL5SFqw1QySjr1zJfpJM9+1rdDwSPLMOPOjKuiXjoU/pUUeG9RwmhY3BhZFkNngAAAAAAAAAAAAAAAAAAAAAAAAAAAAAAAAAAAAAAAAAAAAAAAAAAAAAAAAAAAAAAAAAAAAAAAAAAAAAAAAAAAAAAAAAAAAAAAAAAAAAAAAAAAAAAAAAAAAAAAAAAAAAAAAAAAAAAAAAAAAAAAAAAAAAAAAAAAAAAAAAAAAAAAAAAAAAAAAAAAAAAAAAAAAAAAAAAAAAAAAAAAAAAAAAAAAAAAAAAAAAAAAAAAAAAAAAAAAAAAAAAAAAAAAAAAAAAAAAAAAAAAAAAAAAAAAAAAAAAAAAAAAAAAAAAAAAAAAAAAAAAAAAAAAAAAAAAAAAAAAAAAAAAAAAAAAAAAAAAAAAAAAAAAAAAAAAAAAAAAAAAAAAAAAAAAAAAAAAAAAAAAAAAAAAAAAAAAAAAAAAAAAAAAAAAAAAAAAAAAAAAAAAAAAAAAAAAAAAAAAAAAAAAAAAAAAAAAAAAAAAAAAAAAAAAAAAAAAAAAAAAAAAAAAAAAAAAAAAAAAAAAAAAAAAAAAAAAAAAAAAAAAAAAAAAAAAAAAAAAAAAAAAAAAAAAAAAAAAAAAAAAAAAAAAAAAAAAAAAAAAAAAAAAAAAAAAAAAAAAAAAAAAAAAAAAAAAAAAAAAAAAAAAAAAAAAAAAAAAAAAAAAAAAAAAAAAAAAAAAAAAAAAAAAAAAAAAAAAAAAAAAAAAAAAAAAAAAAAAAAAAAAAAAAAAAAAAAAAAAAAAAAAAAAAAAAAAAAAAAAAAAAAAAAAAAAAAAAAAAAAAAAAAAAAAAAAAAAAAAAAAAAAAAAAAAAAAAAAAAAAAAAAAAAAAAAAAAAAAAAAAAAAAAAAAAAAAAAAAAAAAAAAAAAAAAAAAAAAAAAAAAAAAAAAAAAAAAAAAAAAAAAAAAAAAAAAAAAAAAAAAAAAAAAAAAAAAAAAAAAAAAAAAAAAAAAAAAAAAAAAAAAAAAAAAAAAAAAAAAAAAAAAAAAAAAAAAAAAAAAAAAAAAAAAAAAAAAAAAAAAAAAAAAAAAAAAAAAAAAAAAAAAAAAAAAAAAAAAAAAAAAAAAAAAAAAAAAAAAAAAAAAAAAAAAAAAAAAAAAAAAAAAAAAAAAAAAAAAAAAAAAAAAAAAAAAAAAAAAAAAAAAAAAAAAAAAAAAAAAAAAAAAAAAAAAAAAAAAAAAAAAAAAAAAAAAAAAAAAAAAAAAAAAAAAAAAAAAAAAAAAAAAAAAAAAAAAAAAAAAAAAAAAAAAAAAAAAAAAAAAAAAAAAAAAAAAAAAAAAAAAAAAAAAAAAAAAAAAAAAAAAAAAAAAAAAAAAAAAAAAAAAAAAAAAAAAAAAAAAAAAAAAAAAAAAAAAAAAAAAAAAAAAAAAAAAAAAAAAAAAAAAAAAAAAAAAAAAAAAAAAAAAAAAAAAAAAAAAAAAAAAAAAAAAAAAAAAAAAAAAAAAAAAAAAAAAAAAAAAAAAAAAAAAAAAAAAAAAAAAAAAAAAAAAAAAAAAAAAAAAAAAAAAAAAAAAAAAAAAAAAAAAAAAAAAAAAAAAAAAAAAAAAAAAAAAAAAAAAAAAAAAAAAAAAAAAAAAAAAAAAAAAAAAAAAAAAAAAAAAAAAAAAAAAAAAAAAAAAAAAAAAAAAAAAAAAAAAAAAAAAAAAAAAAAAAAAAAAAAAAAAAAAAAAAAAAAAAAAAAAAAAAAAAAAAAAAAAAAAAAAAAAAAAAAAAAAAAAAAAAAAAAAAAAAAAAAAAAAAAAAAAAAAAAAAAAAAAAAAAAAAAAAAAAAAAAAAAAAAAAAAAAAAAAAAAAAAAAAAAAAAAAAAAAAAAAAAAAAAAAAAAAAAAAAAAAAAAAAAAAAAAAAAAAAAAAAAAAAAAAAAAAAAAAAAAAAAAAAAAAAAAAAAAAAAAAAAAAAAAAAAAAAAAAAAAAAAAAAAAAAAAAAAAAAAAAAAAAAAAAAAAAAAAAAAAAAAAAAAAAAAAAAAAAAAAAAAAAAAAAAAAAAAAAAAAAAAAAAAAAAAAAAAAAAAAAAAAAAAAAAAAAAAAAAAAAAAAAAAAAAAAAAAAAAAAAAAAAAAAAAAAAAAAAAAAAAAAAAAAAAAAAAAAAAAAAAAAAAAAAAAAAAAAAAAAAAAAAAAAAAAAAAAAAAAAAAAAAAAAAAAAAAAAAAAAAAAAAAAAAAAAAAAAAAAAAAAAAAAAAAAAAAAAAAAAAAAAAAAAAAAAAAAAAAAAAAAAAAAAAAAAAAAAAAAAAAAAAAAAAAAAAAAAAAAAAAAAAAAAAAAAAAAAAAAAAAAAAAAAAAAAAAAAAAAAAAAAAAAAAAAAAAAAAAAAAAAAAAAAAAAAAAAAAAAAAAAAAAAAAAAAAAAAAAAAAAAAAAAAAAAAAAAAAAAAAAAAAAAAAAAAAAAAAAAAAAAAAAAAAAAAAAAAAAAAAAAAAAAAAAAAAAAAAAAAAAAAAAAAAAAAAAAAAAAAAAAAAAAAAAAAAAAAAAAAAAAAAAAAAAAAAAAAAAAAAAAAAAAAAAAAAAAAAAAAAAAAAAAAAAAAAAAAAAAAAAAAAAAAAAAAAAAAAAAAAAAAAAAAAAAAAAAAAAAAAAAAAAAAAAAAAAAAAAAAAAAAAAAAAAAAAAAAAAAAAAAAAAAAAAAAAAAAAAAAAAAAAAAAAAAAAAAAAAAAAAAAAAAAAAAAAAAAAAAAAAAAAAAAAAAAAAAAAAAAAAAAAAAAAAAAAAAAAAAAAAAAAAAAAAAAAAAAAAAAAAAAAAAAAAAAAAAAAAAAAAAAAAAAAAAAAAAAAAAAAAAAAAAAAAAAAAAAAAAAAAAAAAAAAAAAAAAAAAAAAAAAAAAAAAAAAAAAAAAAAAAAAAAAAAAAAAAAAAAAAAAAAAAAAAAAAAAAAAAAAAAAAAAAAAAAAAAAAAAAAAAAAAAAAAAAAAAAAAAAAAAAAAAAAAAAAAAAAAAAAAAAAAAAAAAAAAAAAAAAAAAAAAAAAAAAAAAAAAAAAAAAAAAAAAAAAAAAAAAAAAAAAAAAAAAAAAAAAAAAAAAAAAAAAAAAAAAAAAAAAAAAAAAAAAAAAAAAAAAAAAAAAAAAAAAAAAAAAAAAAAAAAAAAAAAAAAAAAAAAAAAAAAAAAAAAAAAAAAAAAAAAAAAAAAAAAAAAAAAAAAAAAAAAAAAAAAAAAAAAAAAAAAAAAAAAAAAAAAAAAAAAAAAAAAAAAAAAAAAAAAAAAAAAAAAAAAAAAAAAAAAAAAAAAAAAAAAAAAAAAAAAAAAAAAAAAAAAAAAAAAAAAAAAAAAAAAAAAAAAAAAAAAAAAAAAAAAAAAAAAAAAAAAAAAAAAAAAAAAAAAAAAAAAAAAAAAAAAAAAAAAAAAAAAAAAAAAAAAAAAAAAAAAAAAAAAAAAAAAAAAAAAAAAAAAAAAAAAAAAAAAAAAAAAAAAAAAAAAAAAAAAAAAAAAAAAAAAAAAAAAAAAAAAAAAAAAAAAAAAAAAAAAAAAAAAAAAAAAAAAAAAAAAAAAAAAAAAAAAAAAAAAAAAAAAAAAAAAAAAAAAAAAAAAAAAAAAAAAAAAAAAAAAAAAAAAAAAAAAAAAAAAAAAAAAAAAAAAAAAAAAAAAAAAAAAAAAAAAAAAAAAAAAAAAAAAAAAAAAAAAAAAAAAAAAAAAAAAAAAAAAAAAAAAAAAAAAAAAAAAAAAAAAAAAAAAAAAAAAAAAAAAAAAAAAAAAAAAAAAAAAAAAAAAAAAAAAAAAAAAAAAAAAAAAAAAAAAAAAAAAAAAAAAAAAAAAAAAAAAAAAAAAAAAAAAAAAAAAAAAAAAAAAAAAAAAAAAAAAAAAAAAAAAAAAAAAAAAAAAAAAAAAAAAAAAAAAAAAAAAAAAAAAAAAAAAAAAAAAAAAAAAAAAAAAAAAAAAAAAAAAAAAAAAAAAAAAAAAAAAAAAAAAAAAAAAAAAAAAAAAAAAAAAAAAAAAAAAAAAAAAAAAAAAAAAAAAAAAAAAAAAAAAAAAAAAAAAAAAAAAAAAAAAAAAAAAAAAAAAAAAAAAAAAAAAAAAAAAAAAAAAAAAAAAAAAAAAAAAAAAAAAAAAAAAAAAAAAAAAAAAAAAAAAAAAAAAAAAAAAAAAAAAAAAAAAAAAAAAAAAAAAAAAAAAAAAAAAAAAAAAAAAAAAAAAAAAAAAAAAAAAAAAAAAAAAAAAAAAAAAAAAAAAAAAAAAAAAAAAAAAAAAAAAAAAAAAAAAAAAAAAAAAAAAAAAAAAAAAAAAAAAAAAAAAAAAAAAAAAAAAAAAAAAAAAAAAAAAAAAAAAAAAAAAAAAAAAAAAAAAAAAAAAAAAAAAAAAAAAAAAAAAAAAAAAAAAAAAAAAAAAAAAAAAAAAAAAAAAAAAAAAAAAAAAAAAAAAAAAAAAAAAAAAAAAAAAAAAAAAAAAAAAAAAAAAAAAAAAAAAAAAAAAAAAAAAAAAAAAAAAAAAAAAAAAAAAAAAAAAAAAAAAAAAAAAAAAAAAAAAAAAAAAAAAAAAAAAAAAAAAAAAAAAAAAAAAAAAAAAAAAAAAAAAAAAAAAAAAAAAAAAAAAAAAAAAAAAAAAAAAAAAAAAAAAAAAAAAAAAAAAAAAAAAAAAAAAAAAAAAAAAAAAAAAAAAAAAAAAAAAAAAAAAAAAAAAAAAAAAAAAAAAAAAAAAAAAAAAAAAAAAAAAAAAAAAAAAAAAAAAAAAAAAAAAAAAPZYQE+B+Q+bGlwxOD6nVqkdYs38Rm8DqJeNV649eblAsIlhwviB0hf6bdtPZqGqcjJmgDfLkxptML7oAI2A6o67zJw=</c2pa:manifest></metadata>
<defs><linearGradient id="far" x1="0" y1="0" x2="0" y2="1"><stop offset="0" stop-color="#16243f"/><stop offset="1" stop-color="#0a1222"/></linearGradient>
<linearGradient id="near" x1="0" y1="0" x2="0" y2="1"><stop offset="0" stop-color="#0b1426"/><stop offset="1" stop-color="#04060b"/></linearGradient></defs>
<g fill="url(#far)"><rect x="-20" y="116" width="50" height="304"/><rect x="35" y="105" width="88" height="315"/><rect x="130" y="208" width="49" height="212"/><rect x="187" y="68" width="52" height="352"/><rect x="247" y="185" width="100" height="235"/><rect x="354" y="112" width="45" height="308"/><rect x="400" y="168" width="54" height="252"/><rect x="461" y="214" width="70" height="206"/><rect x="534" y="134" width="74" height="286"/><rect x="612" y="187" width="66" height="233"/><rect x="679" y="117" width="65" height="303"/><rect x="706" y="77" width="10" height="42"/><rect x="710" y="37" width="2" height="42"/><rect x="750" y="44" width="81" height="376"/><rect x="831" y="167" width="94" height="253"/><rect x="928" y="124" width="63" height="296"/><rect x="954" y="84" width="10" height="42"/><rect x="958" y="44" width="2" height="42"/><rect x="995" y="116" width="66" height="304"/><rect x="1065" y="182" width="71" height="238"/><rect x="1137" y="54" width="46" height="366"/><rect x="1187" y="228" width="79" height="192"/><rect x="1266" y="54" width="79" height="366"/><rect x="1348" y="229" width="96" height="191"/><rect x="1448" y="204" width="71" height="216"/><rect x="1521" y="103" width="43" height="317"/><rect x="1571" y="61" width="59" height="359"/><rect x="1596" y="21" width="9" height="42"/><rect x="1599" y="-19" width="2" height="42"/><rect x="1638" y="61" width="80" height="359"/><rect x="1720" y="123" width="81" height="297"/><rect x="1804" y="228" width="71" height="192"/><rect x="1875" y="63" width="109" height="357"/><rect x="1990" y="237" width="63" height="183"/><rect x="2059" y="120" width="45" height="300"/><rect x="2106" y="152" width="76" height="268"/><rect x="2183" y="210" width="55" height="210"/><rect x="2242" y="125" width="86" height="295"/><rect x="2329" y="131" width="41" height="289"/><rect x="2377" y="119" width="50" height="301"/></g>
<g fill="#9fb6dc" opacity="0.35"><rect x="-14" y="128" width="4" height="6"/><rect x="6" y="142" width="4" height="6"/><rect x="6" y="184" width="4" height="6"/><rect x="-4" y="226" width="4" height="6"/><rect x="61" y="117" width="4" height="6"/><rect x="71" y="145" width="4" height="6"/><rect x="51" y="159" width="4" height="6"/><rect x="111" y="201" width="4" height="6"/><rect x="51" y="215" width="4" height="6"/><rect x="61" y="215" width="4" height="6"/><rect x="51" y="229" width="4" height="6"/><rect x="61" y="271" width="4" height="6"/><rect x="61" y="299" width="4" height="6"/><rect x="111" y="299" width="4" height="6"/><rect x="91" y="313" width="4" height="6"/><rect x="101" y="313" width="4" height="6"/><rect x="61" y="327" width="4" height="6"/><rect x="91" y="327" width="4" height="6"/><rect x="71" y="341" width="4" height="6"/><rect x="146" y="220" width="4" height="6"/><rect x="136" y="346" width="4" height="6"/><rect x="146" y="346" width="4" height="6"/><rect x="193" y="80" width="4" height="6"/><rect x="223" y="122" width="4" height="6"/><rect x="213" y="206" width="4" height="6"/><rect x="213" y="220" width="4" height="6"/><rect x="223" y="234" width="4" height="6"/><rect x="203" y="248" width="4" height="6"/><rect x="213" y="248" width="4" height="6"/><rect x="223" y="248" width="4" height="6"/><rect x="203" y="262" width="4" height="6"/><rect x="273" y="211" width="4" height="6"/><rect x="293" y="211" width="4" height="6"/><rect x="333" y="211" width="4" height="6"/><rect x="323" y="239" width="4" height="6"/><rect x="333" y="253" width="4" height="6"/><rect x="303" y="295" width="4" height="6"/><rect x="323" y="295" width="4" height="6"/><rect x="263" y="309" width="4" height="6"/><rect x="303" y="323" width="4" height="6"/><rect x="263" y="337" width="4" height="6"/><rect x="313" y="337" width="4" height="6"/><rect x="380" y="124" width="4" height="6"/><rect x="390" y="138" width="4" height="6"/><rect x="360" y="152" width="4" height="6"/><rect x="360" y="166" width="4" height="6"/><rect x="380" y="222" width="4" height="6"/><rect x="360" y="320" width="4" height="6"/><rect x="380" y="334" width="4" height="6"/><rect x="426" y="208" width="4" height="6"/><rect x="416" y="222" width="4" height="6"/><rect x="416" y="306" width="4" height="6"/><rect x="416" y="320" width="4" height="6"/><rect x="416" y="348" width="4" height="6"/><rect x="517" y="226" width="4" height="6"/><rect x="507" y="240" width="4" height="6"/><rect x="467" y="254" width="4" height="6"/><rect x="477" y="254" width="4" height="6"/><rect x="517" y="268" width="4" height="6"/><rect x="517" y="296" width="4" height="6"/><rect x="507" y="310" width="4" height="6"/><rect x="550" y="160" width="4" height="6"/><rect x="600" y="160" width="4" height="6"/><rect x="560" y="216" width="4" height="6"/><rect x="590" y="230" width="4" height="6"/><rect x="550" y="272" width="4" height="6"/><rect x="550" y="314" width="4" height="6"/><rect x="560" y="328" width="4" height="6"/><rect x="600" y="342" width="4" height="6"/><rect x="628" y="199" width="4" height="6"/><rect x="658" y="213" width="4" height="6"/><rect x="648" y="255" width="4" height="6"/><rect x="648" y="311" width="4" height="6"/><rect x="648" y="325" width="4" height="6"/><rect x="618" y="339" width="4" height="6"/><rect x="628" y="339" width="4" height="6"/><rect x="685" y="129" width="4" height="6"/><rect x="725" y="157" width="4" height="6"/><rect x="685" y="227" width="4" height="6"/><rect x="715" y="227" width="4" height="6"/><rect x="735" y="227" width="4" height="6"/><rect x="685" y="241" width="4" height="6"/><rect x="695" y="269" width="4" height="6"/><rect x="705" y="269" width="4" height="6"/><rect x="735" y="283" width="4" height="6"/><rect x="735" y="311" width="4" height="6"/><rect x="705" y="325" width="4" height="6"/><rect x="735" y="325" width="4" height="6"/><rect x="786" y="70" width="4" height="6"/><rect x="776" y="84" width="4" height="6"/><rect x="786" y="98" width="4" height="6"/><rect x="806" y="154" width="4" height="6"/><rect x="786" y="168" width="4" height="6"/><rect x="756" y="182" width="4" height="6"/><rect x="806" y="182" width="4" height="6"/><rect x="756" y="196" width="4" height="6"/><rect x="786" y="196" width="4" height="6"/><rect x="796" y="196" width="4" height="6"/><rect x="766" y="238" width="4" height="6"/><rect x="796" y="266" width="4" height="6"/><rect x="816" y="266" width="4" height="6"/><rect x="806" y="280" width="4" height="6"/><rect x="796" y="294" width="4" height="6"/><rect x="806" y="294" width="4" height="6"/><rect x="796" y="350" width="4" height="6"/><rect x="877" y="193" width="4" height="6"/><rect x="847" y="221" width="4" height="6"/><rect x="837" y="249" width="4" height="6"/><rect x="837" y="319" width="4" height="6"/><rect x="837" y="333" width="4" height="6"/><rect x="917" y="333" width="4" height="6"/><rect x="857" y="347" width="4" height="6"/><rect x="974" y="220" width="4" height="6"/><rect x="954" y="248" width="4" height="6"/><rect x="964" y="248" width="4" height="6"/><rect x="1011" y="142" width="4" height="6"/><rect x="1011" y="156" width="4" height="6"/><rect x="1021" y="156" width="4" height="6"/><rect x="1041" y="156" width="4" height="6"/><rect x="1021" y="184" width="4" height="6"/><rect x="1021" y="212" width="4" height="6"/><rect x="1041" y="212" width="4" height="6"/><rect x="1031" y="282" width="4" height="6"/><rect x="1001" y="296" width="4" height="6"/><rect x="1041" y="296" width="4" height="6"/><rect x="1001" y="310" width="4" height="6"/><rect x="1011" y="324" width="4" height="6"/><rect x="1071" y="194" width="4" height="6"/><rect x="1121" y="194" width="4" height="6"/><rect x="1111" y="222" width="4" height="6"/><rect x="1101" y="250" width="4" height="6"/><rect x="1111" y="250" width="4" height="6"/><rect x="1071" y="278" width="4" height="6"/><rect x="1143" y="66" width="4" height="6"/><rect x="1143" y="94" width="4" height="6"/><rect x="1153" y="122" width="4" height="6"/><rect x="1143" y="234" width="4" height="6"/><rect x="1173" y="262" width="4" height="6"/><rect x="1163" y="290" width="4" height="6"/><rect x="1253" y="254" width="4" height="6"/><rect x="1193" y="310" width="4" height="6"/><rect x="1253" y="310" width="4" height="6"/><rect x="1272" y="94" width="4" height="6"/><rect x="1292" y="108" width="4" height="6"/><rect x="1332" y="108" width="4" height="6"/><rect x="1272" y="164" width="4" height="6"/><rect x="1272" y="206" width="4" height="6"/><rect x="1292" y="206" width="4" height="6"/><rect x="1292" y="234" width="4" height="6"/><rect x="1302" y="234" width="4" height="6"/><rect x="1282" y="248" width="4" height="6"/><rect x="1292" y="276" width="4" height="6"/><rect x="1302" y="304" width="4" height="6"/><rect x="1282" y="332" width="4" height="6"/><rect x="1312" y="332" width="4" height="6"/><rect x="1282" y="346" width="4" height="6"/><rect x="1374" y="269" width="4" height="6"/><rect x="1354" y="283" width="4" height="6"/><rect x="1384" y="283" width="4" height="6"/><rect x="1354" y="311" width="4" height="6"/><rect x="1424" y="311" width="4" height="6"/><rect x="1434" y="311" width="4" height="6"/><rect x="1464" y="258" width="4" height="6"/><rect x="1454" y="272" width="4" height="6"/><rect x="1504" y="272" width="4" height="6"/><rect x="1474" y="300" width="4" height="6"/><rect x="1537" y="129" width="4" height="6"/><rect x="1557" y="171" width="4" height="6"/><rect x="1527" y="213" width="4" height="6"/><rect x="1537" y="213" width="4" height="6"/><rect x="1547" y="241" width="4" height="6"/><rect x="1557" y="255" width="4" height="6"/><rect x="1557" y="297" width="4" height="6"/><rect x="1557" y="311" width="4" height="6"/><rect x="1597" y="101" width="4" height="6"/><rect x="1577" y="157" width="4" height="6"/><rect x="1607" y="157" width="4" height="6"/><rect x="1617" y="185" width="4" height="6"/><rect x="1577" y="213" width="4" height="6"/><rect x="1597" y="213" width="4" height="6"/><rect x="1577" y="227" width="4" height="6"/><rect x="1597" y="269" width="4" height="6"/><rect x="1617" y="325" width="4" height="6"/><rect x="1694" y="101" width="4" height="6"/><rect x="1674" y="115" width="4" height="6"/><rect x="1674" y="213" width="4" height="6"/><rect x="1684" y="255" width="4" height="6"/><rect x="1704" y="283" width="4" height="6"/><rect x="1694" y="311" width="4" height="6"/><rect x="1664" y="339" width="4" height="6"/><rect x="1726" y="149" width="4" height="6"/><rect x="1756" y="149" width="4" height="6"/><rect x="1756" y="177" width="4" height="6"/><rect x="1736" y="191" width="4" height="6"/><rect x="1736" y="247" width="4" height="6"/><rect x="1766" y="247" width="4" height="6"/><rect x="1756" y="261" width="4" height="6"/><rect x="1766" y="275" width="4" height="6"/><rect x="1776" y="275" width="4" height="6"/><rect x="1726" y="289" width="4" height="6"/><rect x="1736" y="289" width="4" height="6"/><rect x="1756" y="317" width="4" height="6"/><rect x="1766" y="345" width="4" height="6"/><rect x="1776" y="345" width="4" height="6"/><rect x="1830" y="240" width="4" height="6"/><rect x="1840" y="254" width="4" height="6"/><rect x="1850" y="282" width="4" height="6"/><rect x="1860" y="296" width="4" height="6"/><rect x="1830" y="324" width="4" height="6"/><rect x="1840" y="324" width="4" height="6"/><rect x="1951" y="75" width="4" height="6"/><rect x="1941" y="117" width="4" height="6"/><rect x="1951" y="131" width="4" height="6"/><rect x="1911" y="145" width="4" height="6"/><rect x="1891" y="159" width="4" height="6"/><rect x="1951" y="159" width="4" height="6"/><rect x="1951" y="187" width="4" height="6"/><rect x="1951" y="229" width="4" height="6"/><rect x="1891" y="243" width="4" height="6"/><rect x="1891" y="271" width="4" height="6"/><rect x="1971" y="271" width="4" height="6"/><rect x="1911" y="285" width="4" height="6"/><rect x="1901" y="299" width="4" height="6"/><rect x="1961" y="299" width="4" height="6"/><rect x="1891" y="313" width="4" height="6"/><rect x="1931" y="313" width="4" height="6"/><rect x="1971" y="313" width="4" height="6"/><rect x="1881" y="341" width="4" height="6"/><rect x="1951" y="341" width="4" height="6"/><rect x="2046" y="263" width="4" height="6"/><rect x="1996" y="291" width="4" height="6"/><rect x="2036" y="319" width="4" height="6"/><rect x="2065" y="132" width="4" height="6"/><rect x="2085" y="132" width="4" height="6"/><rect x="2065" y="230" width="4" height="6"/><rect x="2095" y="258" width="4" height="6"/><rect x="2075" y="272" width="4" height="6"/><rect x="2065" y="286" width="4" height="6"/><rect x="2075" y="286" width="4" height="6"/><rect x="2085" y="286" width="4" height="6"/><rect x="2075" y="328" width="4" height="6"/><rect x="2075" y="342" width="4" height="6"/><rect x="2162" y="206" width="4" height="6"/><rect x="2122" y="220" width="4" height="6"/><rect x="2112" y="248" width="4" height="6"/><rect x="2122" y="248" width="4" height="6"/><rect x="2152" y="248" width="4" height="6"/><rect x="2162" y="262" width="4" height="6"/><rect x="2132" y="304" width="4" height="6"/><rect x="2172" y="318" width="4" height="6"/><rect x="2132" y="332" width="4" height="6"/><rect x="2162" y="332" width="4" height="6"/><rect x="2209" y="320" width="4" height="6"/><rect x="2219" y="348" width="4" height="6"/><rect x="2268" y="137" width="4" height="6"/><rect x="2298" y="151" width="4" height="6"/><rect x="2258" y="165" width="4" height="6"/><rect x="2318" y="165" width="4" height="6"/><rect x="2308" y="179" width="4" height="6"/><rect x="2278" y="221" width="4" height="6"/><rect x="2278" y="277" width="4" height="6"/><rect x="2248" y="305" width="4" height="6"/><rect x="2298" y="305" width="4" height="6"/><rect x="2258" y="333" width="4" height="6"/><rect x="2308" y="333" width="4" height="6"/><rect x="2355" y="143" width="4" height="6"/><rect x="2335" y="171" width="4" height="6"/><rect x="2335" y="199" width="4" height="6"/><rect x="2335" y="213" width="4" height="6"/><rect x="2335" y="255" width="4" height="6"/><rect x="2345" y="269" width="4" height="6"/><rect x="2413" y="131" width="4" height="6"/><rect x="2383" y="159" width="4" height="6"/><rect x="2383" y="215" width="4" height="6"/><rect x="2403" y="215" width="4" height="6"/><rect x="2383" y="243" width="4" height="6"/><rect x="2393" y="285" width="4" height="6"/><rect x="2383" y="327" width="4" height="6"/><rect x="2393" y="341" width="4" height="6"/></g>
<g fill="url(#near)"><rect x="-20" y="344" width="152" height="76"/><rect x="138" y="332" width="78" height="88"/><rect x="219" y="311" width="87" height="109"/><rect x="313" y="273" width="77" height="147"/><rect x="394" y="292" width="133" height="128"/><rect x="531" y="327" width="154" height="93"/><rect x="685" y="346" width="126" height="74"/><rect x="817" y="366" width="127" height="54"/><rect x="947" y="374" width="139" height="46"/><rect x="1092" y="300" width="115" height="120"/><rect x="1211" y="285" width="90" height="135"/><rect x="1302" y="378" width="119" height="42"/><rect x="1427" y="300" width="62" height="120"/><rect x="1453" y="260" width="10" height="42"/><rect x="1457" y="220" width="2" height="42"/><rect x="1495" y="374" width="145" height="46"/><rect x="1646" y="285" width="125" height="135"/><rect x="1778" y="290" width="140" height="130"/><rect x="1918" y="322" width="129" height="98"/><rect x="2047" y="365" width="96" height="55"/><rect x="2148" y="333" width="62" height="87"/><rect x="2211" y="356" width="93" height="64"/><rect x="2308" y="267" width="119" height="153"/></g>
<g fill="#9fb6dc" opacity="0.22"><rect x="66" y="356" width="4" height="6"/><rect x="76" y="356" width="4" height="6"/><rect x="26" y="370" width="4" height="6"/><rect x="46" y="370" width="4" height="6"/><rect x="66" y="370" width="4" height="6"/><rect x="86" y="370" width="4" height="6"/><rect x="66" y="384" width="4" height="6"/><rect x="86" y="384" width="4" height="6"/><rect x="56" y="398" width="4" height="6"/><rect x="295" y="337" width="4" height="6"/><rect x="245" y="365" width="4" height="6"/><rect x="295" y="379" width="4" height="6"/><rect x="349" y="285" width="4" height="6"/><rect x="379" y="341" width="4" height="6"/><rect x="369" y="355" width="4" height="6"/><rect x="319" y="383" width="4" height="6"/><rect x="500" y="304" width="4" height="6"/><rect x="520" y="304" width="4" height="6"/><rect x="500" y="360" width="4" height="6"/><rect x="440" y="388" width="4" height="6"/><rect x="657" y="339" width="4" height="6"/><rect x="627" y="353" width="4" height="6"/><rect x="547" y="367" width="4" height="6"/><rect x="587" y="367" width="4" height="6"/><rect x="557" y="381" width="4" height="6"/><rect x="577" y="381" width="4" height="6"/><rect x="647" y="381" width="4" height="6"/><rect x="577" y="395" width="4" height="6"/><rect x="627" y="395" width="4" height="6"/><rect x="637" y="395" width="4" height="6"/><rect x="657" y="395" width="4" height="6"/><rect x="647" y="409" width="4" height="6"/><rect x="691" y="358" width="4" height="6"/><rect x="791" y="358" width="4" height="6"/><rect x="801" y="358" width="4" height="6"/><rect x="691" y="372" width="4" height="6"/><rect x="781" y="372" width="4" height="6"/><rect x="801" y="372" width="4" height="6"/><rect x="771" y="400" width="4" height="6"/><rect x="933" y="378" width="4" height="6"/><rect x="933" y="406" width="4" height="6"/><rect x="973" y="400" width="4" height="6"/><rect x="1003" y="400" width="4" height="6"/><rect x="1043" y="400" width="4" height="6"/><rect x="1158" y="340" width="4" height="6"/><rect x="1168" y="354" width="4" height="6"/><rect x="1178" y="354" width="4" height="6"/><rect x="1178" y="368" width="4" height="6"/><rect x="1128" y="382" width="4" height="6"/><rect x="1138" y="382" width="4" height="6"/><rect x="1148" y="410" width="4" height="6"/><rect x="1257" y="339" width="4" height="6"/><rect x="1237" y="353" width="4" height="6"/><rect x="1217" y="367" width="4" height="6"/><rect x="1247" y="367" width="4" height="6"/><rect x="1277" y="367" width="4" height="6"/><rect x="1247" y="381" width="4" height="6"/><rect x="1277" y="381" width="4" height="6"/><rect x="1287" y="381" width="4" height="6"/><rect x="1308" y="390" width="4" height="6"/><rect x="1328" y="390" width="4" height="6"/><rect x="1348" y="390" width="4" height="6"/><rect x="1398" y="390" width="4" height="6"/><rect x="1318" y="404" width="4" height="6"/><rect x="1378" y="404" width="4" height="6"/><rect x="1398" y="404" width="4" height="6"/><rect x="1463" y="312" width="4" height="6"/><rect x="1453" y="326" width="4" height="6"/><rect x="1473" y="326" width="4" height="6"/><rect x="1463" y="368" width="4" height="6"/><rect x="1453" y="382" width="4" height="6"/><rect x="1473" y="410" width="4" height="6"/><rect x="1591" y="386" width="4" height="6"/><rect x="1511" y="400" width="4" height="6"/><rect x="1531" y="400" width="4" height="6"/><rect x="1631" y="400" width="4" height="6"/><rect x="1702" y="297" width="4" height="6"/><rect x="1752" y="297" width="4" height="6"/><rect x="1732" y="311" width="4" height="6"/><rect x="1712" y="325" width="4" height="6"/><rect x="1682" y="339" width="4" height="6"/><rect x="1752" y="339" width="4" height="6"/><rect x="1662" y="367" width="4" height="6"/><rect x="1682" y="367" width="4" height="6"/><rect x="1712" y="367" width="4" height="6"/><rect x="1742" y="395" width="4" height="6"/><rect x="1752" y="395" width="4" height="6"/><rect x="1762" y="395" width="4" height="6"/><rect x="1844" y="302" width="4" height="6"/><rect x="1784" y="330" width="4" height="6"/><rect x="1824" y="344" width="4" height="6"/><rect x="1834" y="344" width="4" height="6"/><rect x="1854" y="358" width="4" height="6"/><rect x="1904" y="358" width="4" height="6"/><rect x="1884" y="386" width="4" height="6"/><rect x="1864" y="400" width="4" height="6"/><rect x="1984" y="334" width="4" height="6"/><rect x="1994" y="334" width="4" height="6"/><rect x="1934" y="376" width="4" height="6"/><rect x="1994" y="376" width="4" height="6"/><rect x="1964" y="404" width="4" height="6"/><rect x="2083" y="377" width="4" height="6"/><rect x="2093" y="377" width="4" height="6"/><rect x="2103" y="377" width="4" height="6"/><rect x="2063" y="391" width="4" height="6"/><rect x="2123" y="405" width="4" height="6"/><rect x="2184" y="345" width="4" height="6"/><rect x="2154" y="359" width="4" height="6"/><rect x="2184" y="387" width="4" height="6"/><rect x="2174" y="401" width="4" height="6"/><rect x="2194" y="401" width="4" height="6"/><rect x="2217" y="382" width="4" height="6"/><rect x="2324" y="293" width="4" height="6"/><rect x="2374" y="321" width="4" height="6"/><rect x="2404" y="321" width="4" height="6"/><rect x="2374" y="335" width="4" height="6"/><rect x="2314" y="349" width="4" height="6"/><rect x="2354" y="363" width="4" height="6"/><rect x="2384" y="363" width="4" height="6"/><rect x="2344" y="391" width="4" height="6"/><rect x="2394" y="391" width="4" height="6"/></g>
<g fill="#03050a"><path d="M82.3 420 Q81.0 255.0 56.7 120 L63.3 120 Q89.8 255.0 97.7 420 Z"/><path d="M60 120 Q15.0 96.7 -29.9 143.2 Q15.0 105.5 60 125.5 Z"/><path d="M60 120 Q34.7 83.4 9.4 119.8 Q34.7 92.2 60 125.5 Z"/><path d="M60 120 Q48.1 72.0 36.3 108.4 Q48.1 80.8 60 125.5 Z"/><path d="M60 120 Q70.5 65.3 81.1 105.2 Q70.5 74.1 60 125.5 Z"/><path d="M60 120 Q94.1 76.0 128.3 119.7 Q94.1 84.8 60 125.5 Z"/><path d="M60 120 Q92.5 98.9 125.0 136.8 Q92.5 107.7 60 125.5 Z"/><path d="M60 120 Q95.7 117.6 131.3 160.8 Q95.7 126.4 60 125.5 Z"/><path d="M203.7 420 Q217.5 288.0 232.3 180 L237.7 180 Q224.7 288.0 216.3 420 Z"/><path d="M235 180 Q198.7 161.0 162.3 198.8 Q198.7 168.2 235 184.5 Z"/><path d="M235 180 Q210.5 146.9 186.0 179.8 Q210.5 154.1 235 184.5 Z"/><path d="M235 180 Q224.4 138.2 213.8 169.6 Q224.4 145.4 235 184.5 Z"/><path d="M235 180 Q244.7 131.3 254.3 166.5 Q244.7 138.5 235 184.5 Z"/><path d="M235 180 Q261.5 145.1 288.1 179.8 Q261.5 152.3 235 184.5 Z"/><path d="M235 180 Q265.6 162.0 296.2 195.8 Q265.6 169.2 235 184.5 Z"/><path d="M235 180 Q270.1 180.2 305.2 220.2 Q270.1 187.4 235 184.5 Z"/><path d="M2183.0 420 Q2184.0 266.0 2167.0 140 L2173.0 140 Q2192.0 266.0 2197.0 420 Z"/><path d="M2170 140 Q2130.1 119.0 2090.2 160.6 Q2130.1 127.0 2170 145.0 Z"/><path d="M2170 140 Q2139.7 100.6 2109.5 139.7 Q2139.7 108.6 2170 145.0 Z"/><path d="M2170 140 Q2159.2 96.4 2148.5 129.5 Q2159.2 104.4 2170 145.0 Z"/><path d="M2170 140 Q2180.0 88.8 2189.9 126.0 Q2180.0 96.8 2170 145.0 Z"/><path d="M2170 140 Q2196.0 104.1 2222.1 139.8 Q2196.0 112.1 2170 145.0 Z"/><path d="M2170 140 Q2207.9 119.3 2245.8 159.6 Q2207.9 127.3 2170 145.0 Z"/><path d="M2170 140 Q2200.5 137.1 2231.1 175.0 Q2200.5 145.1 2170 145.0 Z"/><path d="M2311.95 420 Q2329.0 238.49999999999997 2346.55 90 L2353.45 90 Q2338.2 238.49999999999997 2328.05 420 Z"/><path d="M2350 90 Q2303.6 65.7 2257.1 114.0 Q2303.6 74.9 2350 95.75 Z"/><path d="M2350 90 Q2313.9 43.6 2277.8 89.7 Q2313.9 52.8 2350 95.75 Z"/><path d="M2350 90 Q2333.9 29.6 2317.7 74.3 Q2333.9 38.8 2350 95.75 Z"/><path d="M2350 90 Q2359.4 38.9 2368.8 76.9 Q2359.4 48.1 2350 95.75 Z"/><path d="M2350 90 Q2387.4 42.5 2424.9 89.7 Q2387.4 51.7 2350 95.75 Z"/><path d="M2350 90 Q2389.6 66.9 2429.3 110.5 Q2389.6 76.1 2350 95.75 Z"/><path d="M2350 90 Q2384.6 86.5 2419.2 129.6 Q2384.6 95.7 2350 95.75 Z"/></g>
</svg>